<svg width="132" height="31" viewBox="0 0 132 31" fill="none" xmlns="http://www.w3.org/2000/svg">
<path d="M1.4 30C1.18667 30 0.986667 29.92 0.8 29.76C0.64 29.6 0.56 29.4 0.56 29.16C0.56 29.0533 0.586667 28.9333 0.64 28.8L10.28 3C10.36 2.73333 10.5067 2.50666 10.72 2.32C10.96 2.10666 11.28 2 11.68 2H16.04C16.44 2 16.7467 2.10666 16.96 2.32C17.1733 2.50666 17.3333 2.73333 17.44 3L27.08 28.8C27.1067 28.9333 27.12 29.0533 27.12 29.16C27.12 29.4 27.04 29.6 26.88 29.76C26.72 29.92 26.5333 30 26.32 30H22.84C22.4667 30 22.1867 29.92 22 29.76C21.84 29.5733 21.7333 29.4 21.68 29.24L19.8 24.36H7.92L6.04 29.24C5.98667 29.4 5.86667 29.5733 5.68 29.76C5.52 29.92 5.25333 30 4.88 30H1.4ZM9.32 19.76H18.4L13.84 7.4L9.32 19.76ZM31.3344 30C31.0677 30 30.841 29.9067 30.6544 29.72C30.4677 29.5333 30.3744 29.3067 30.3744 29.04V10.16C30.3744 9.89333 30.4677 9.66667 30.6544 9.48C30.841 9.29333 31.0677 9.2 31.3344 9.2H34.6144C34.881 9.2 35.1077 9.29333 35.2944 9.48C35.481 9.66667 35.5744 9.89333 35.5744 10.16V11.8C36.2677 10.9467 37.1477 10.24 38.2144 9.68C39.3077 9.09333 40.6544 8.8 42.2544 8.8C43.881 8.8 45.2944 9.17333 46.4944 9.92C47.6944 10.64 48.6144 11.6667 49.2544 13C49.921 14.3333 50.2544 15.9333 50.2544 17.8V29.04C50.2544 29.3067 50.161 29.5333 49.9744 29.72C49.7877 29.9067 49.561 30 49.2944 30H45.7744C45.5077 30 45.281 29.9067 45.0944 29.72C44.9077 29.5333 44.8144 29.3067 44.8144 29.04V18.04C44.8144 16.4933 44.4277 15.28 43.6544 14.4C42.9077 13.52 41.8144 13.08 40.3744 13.08C38.9877 13.08 37.881 13.52 37.0544 14.4C36.2277 15.28 35.8144 16.4933 35.8144 18.04V29.04C35.8144 29.3067 35.721 29.5333 35.5344 29.72C35.3477 29.9067 35.121 30 34.8544 30H31.3344ZM56.2953 30C56.0286 30 55.802 29.9067 55.6153 29.72C55.4286 29.5333 55.3353 29.3067 55.3353 29.04V10.16C55.3353 9.89333 55.4286 9.66667 55.6153 9.48C55.802 9.29333 56.0286 9.2 56.2953 9.2H59.6153C59.9086 9.2 60.1353 9.29333 60.2953 9.48C60.482 9.66667 60.5753 9.89333 60.5753 10.16V29.04C60.5753 29.3067 60.482 29.5333 60.2953 29.72C60.1353 29.9067 59.9086 30 59.6153 30H56.2953ZM56.1353 5.76C55.842 5.76 55.602 5.68 55.4153 5.52C55.2553 5.33333 55.1753 5.09333 55.1753 4.8V1.92C55.1753 1.65333 55.2553 1.42667 55.4153 1.24C55.602 1.05333 55.842 0.96 56.1353 0.96H59.7753C60.0686 0.96 60.3086 1.05333 60.4953 1.24C60.682 1.42667 60.7753 1.65333 60.7753 1.92V4.8C60.7753 5.09333 60.682 5.33333 60.4953 5.52C60.3086 5.68 60.0686 5.76 59.7753 5.76H56.1353ZM66.6022 30C66.3355 30 66.1089 29.9067 65.9222 29.72C65.7355 29.5333 65.6422 29.3067 65.6422 29.04V25.08C65.6422 24.7867 65.7355 24.5467 65.9222 24.36C66.1089 24.1733 66.3355 24.08 66.6022 24.08H70.6022C70.8689 24.08 71.0955 24.1733 71.2822 24.36C71.4689 24.5467 71.5622 24.7867 71.5622 25.08V29.04C71.5622 29.3067 71.4689 29.5333 71.2822 29.72C71.0955 29.9067 70.8689 30 70.6022 30H66.6022ZM77.5453 30C77.2786 30 77.052 29.9067 76.8653 29.72C76.6786 29.5333 76.5853 29.3067 76.5853 29.04V10.16C76.5853 9.89333 76.6786 9.66667 76.8653 9.48C77.052 9.29333 77.2786 9.2 77.5453 9.2H80.6653C80.932 9.2 81.1586 9.29333 81.3453 9.48C81.532 9.66667 81.6253 9.89333 81.6253 10.16V11.52C82.1853 10.7733 82.932 10.1467 83.8653 9.64C84.8253 9.10667 85.9586 8.82667 87.2653 8.8C90.3053 8.74667 92.4253 9.93333 93.6253 12.36C94.2386 11.2933 95.1186 10.44 96.2653 9.8C97.4386 9.13333 98.732 8.8 100.145 8.8C101.532 8.8 102.785 9.12 103.905 9.76C105.052 10.4 105.945 11.3733 106.585 12.68C107.252 13.96 107.585 15.5867 107.585 17.56V29.04C107.585 29.3067 107.492 29.5333 107.305 29.72C107.119 29.9067 106.892 30 106.625 30H103.345C103.079 30 102.852 29.9067 102.665 29.72C102.479 29.5333 102.385 29.3067 102.385 29.04V17.88C102.385 16.68 102.212 15.7333 101.865 15.04C101.519 14.32 101.052 13.8133 100.465 13.52C99.8786 13.2267 99.2253 13.08 98.5053 13.08C97.9186 13.08 97.332 13.2267 96.7453 13.52C96.1586 13.8133 95.6786 14.32 95.3053 15.04C94.932 15.7333 94.7453 16.68 94.7453 17.88V29.04C94.7453 29.3067 94.652 29.5333 94.4653 29.72C94.2786 29.9067 94.052 30 93.7853 30H90.5053C90.212 30 89.972 29.9067 89.7853 29.72C89.6253 29.5333 89.5453 29.3067 89.5453 29.04V17.88C89.5453 16.68 89.3586 15.7333 88.9853 15.04C88.612 14.32 88.132 13.8133 87.5453 13.52C86.9586 13.2267 86.332 13.08 85.6653 13.08C85.052 13.08 84.452 13.24 83.8653 13.56C83.2786 13.8533 82.7986 14.3467 82.4253 15.04C82.052 15.7333 81.8653 16.68 81.8653 17.88V29.04C81.8653 29.3067 81.772 29.5333 81.5853 29.72C81.3986 29.9067 81.172 30 80.9053 30H77.5453ZM121.639 30.4C118.679 30.4 116.332 29.5467 114.599 27.84C112.866 26.1333 111.932 23.7067 111.799 20.56C111.772 20.2933 111.759 19.96 111.759 19.56C111.759 19.1333 111.772 18.8 111.799 18.56C111.906 16.56 112.359 14.8267 113.159 13.36C113.986 11.8933 115.119 10.7733 116.559 10C117.999 9.2 119.692 8.8 121.639 8.8C123.799 8.8 125.612 9.25333 127.079 10.16C128.546 11.04 129.652 12.28 130.399 13.88C131.146 15.4533 131.519 17.28 131.519 19.36V20.2C131.519 20.4667 131.426 20.6933 131.239 20.88C131.052 21.0667 130.812 21.16 130.519 21.16H117.239C117.239 21.16 117.239 21.2 117.239 21.28C117.239 21.36 117.239 21.4267 117.239 21.48C117.266 22.4133 117.439 23.28 117.759 24.08C118.106 24.8533 118.599 25.48 119.239 25.96C119.906 26.44 120.692 26.68 121.599 26.68C122.346 26.68 122.972 26.5733 123.479 26.36C123.986 26.12 124.399 25.8533 124.719 25.56C125.039 25.2667 125.266 25.0267 125.399 24.84C125.639 24.52 125.826 24.3333 125.959 24.28C126.119 24.2 126.346 24.16 126.639 24.16H130.079C130.346 24.16 130.559 24.24 130.719 24.4C130.906 24.56 130.986 24.76 130.959 25C130.932 25.4267 130.706 25.9467 130.279 26.56C129.879 27.1733 129.292 27.7733 128.519 28.36C127.746 28.9467 126.772 29.44 125.599 29.84C124.452 30.2133 123.132 30.4 121.639 30.4ZM117.239 17.8H126.079V17.68C126.079 16.64 125.906 15.7333 125.559 14.96C125.212 14.1867 124.706 13.5733 124.039 13.12C123.372 12.6667 122.572 12.44 121.639 12.44C120.706 12.44 119.906 12.6667 119.239 13.12C118.572 13.5733 118.066 14.1867 117.719 14.96C117.399 15.7333 117.239 16.64 117.239 17.68V17.8Z" fill="#00A3FF"/>
</svg>
